<svg xmlns="http://www.w3.org/2000/svg" viewBox="0 0 24 24" class="socialIcon-3GRzJX"><path fill="currentColor" d="M2 18.4788H3C4.875 18.4788 6.75 17.831 8.125 16.665C6.375 16.665 4.875 15.3695 4.25 13.6853C4.5 13.6853 4.75 13.8148 5 13.8148C5.375 13.8148 5.75 13.8148 6.125 13.6853C4.25 13.2966 2.75 11.6124 2.75 9.5395C3.25 9.79861 3.875 10.0577 4.625 10.0577C3.5 9.28039 2.875 7.98485 2.875 6.43019C2.875 5.65286 3.125 4.87553 3.375 4.22776C5.375 6.81885 8.375 8.50306 11.875 8.63262C11.75 8.50306 11.75 8.1144 11.75 7.85529C11.75 5.52331 13.625 3.57999 15.875 3.57999C17 3.57999 18.125 4.09821 18.875 4.87553C19.75 4.74598 20.75 4.35731 21.5 3.8391C21.25 4.87553 20.5 5.65286 19.75 6.17108C20.5 6.17108 21.25 5.91197 22 5.52331C21.5 6.43019 20.75 7.07796 20 7.72574V8.24395C20 13.9444 15.875 20.4221 8.25 20.4221C5.875 20.4221 3.75 19.7743 2 18.4788Z"/></svg>