<svg xmlns="http://www.w3.org/2000/svg" viewBox="0 0 24 24" class="socialIcon-3GRzJX"><g fill="currentColor"><path fill-rule="evenodd" clip-rule="evenodd" d="M12.0001 2C9.28417 2 8.94362 2.01151 7.87702 2.06018C6.81263 2.10872 6.08569 2.27779 5.44962 2.52501C4.79203 2.78052 4.23436 3.12245 3.67839 3.67838C3.12245 4.23436 2.78053 4.79203 2.52501 5.44962C2.27779 6.08569 2.10872 6.81263 2.06018 7.87702C2.01151 8.94362 2 9.28416 2 12C2 14.7158 2.01151 15.0564 2.06018 16.123C2.10872 17.1874 2.27779 17.9143 2.52501 18.5504C2.78053 19.208 3.12245 19.7657 3.67839 20.3217C4.23436 20.8775 4.79203 21.2195 5.44962 21.475C6.08569 21.7222 6.81263 21.8913 7.87702 21.9398C8.94362 21.9885 9.28417 22 12.0001 22C14.7158 22 15.0564 21.9885 16.123 21.9398C17.1874 21.8913 17.9143 21.7222 18.5504 21.475C19.2079 21.2195 19.7656 20.8775 20.3216 20.3217C20.8776 19.7657 21.2195 19.208 21.4751 18.5504C21.7222 17.9143 21.8913 17.1874 21.9398 16.123C21.9885 15.0564 22 14.7158 22 12C22 9.28416 21.9885 8.94362 21.9398 7.87702C21.8913 6.81263 21.7222 6.08569 21.4751 5.44962C21.2195 4.79203 20.8776 4.23436 20.3216 3.67838C19.7656 3.12245 19.2079 2.78052 18.5504 2.52501C17.9143 2.27779 17.1874 2.10872 16.123 2.06018C15.0564 2.01151 14.7158 2 12.0001 2ZM12.0001 3.8018C14.6701 3.8018 14.9864 3.812 16.0408 3.86011C17.0158 3.90457 17.5453 4.06747 17.8977 4.20443C18.3645 4.38583 18.6976 4.60252 19.0475 4.95247C19.3975 5.30239 19.6142 5.63551 19.7956 6.10229C19.9326 6.45466 20.0954 6.98416 20.1399 7.95914C20.188 9.01361 20.1982 9.3299 20.1982 12C20.1982 14.6701 20.188 14.9864 20.1399 16.0408C20.0954 17.0158 19.9326 17.5454 19.7956 17.8977C19.6142 18.3645 19.3975 18.6977 19.0475 19.0476C18.6976 19.3975 18.3645 19.6141 17.8977 19.7956C17.5453 19.9325 17.0158 20.0954 16.0408 20.1399C14.9866 20.188 14.6703 20.1982 12.0001 20.1982C9.3297 20.1982 9.01349 20.188 7.95914 20.1399C6.98416 20.0954 6.45466 19.9325 6.10229 19.7956C5.63552 19.6141 5.30239 19.3975 4.95248 19.0476C4.60257 18.6977 4.38583 18.3645 4.20443 17.8977C4.06748 17.5454 3.90457 17.0158 3.86011 16.0408C3.812 14.9864 3.8018 14.6701 3.8018 12C3.8018 9.3299 3.812 9.01361 3.86011 7.95914C3.90457 6.98416 4.06748 6.45466 4.20443 6.10229C4.38583 5.63551 4.60253 5.30239 4.95248 4.95247C5.30239 4.60252 5.63552 4.38583 6.10229 4.20443C6.45466 4.06747 6.98416 3.90457 7.95914 3.86011C9.01361 3.812 9.3299 3.8018 12.0001 3.8018Z"/><path fill-rule="evenodd" clip-rule="evenodd" d="M12 15.3334C10.159 15.3334 8.66662 13.8409 8.66662 12C8.66662 10.159 10.159 8.66667 12 8.66667C13.8409 8.66667 15.3333 10.159 15.3333 12C15.3333 13.8409 13.8409 15.3334 12 15.3334ZM12 6.86487C9.16388 6.86487 6.86482 9.16392 6.86482 12C6.86482 14.8361 9.16388 17.1352 12 17.1352C14.8361 17.1352 17.1351 14.8361 17.1351 12C17.1351 9.16392 14.8361 6.86487 12 6.86487Z"/><path fill-rule="evenodd" clip-rule="evenodd" d="M18.5373 6.66163C18.5373 7.32417 18.0002 7.86123 17.3376 7.86123C16.6751 7.86123 16.138 7.32417 16.138 6.66163C16.138 5.99909 16.6751 5.46198 17.3376 5.46198C18.0002 5.46198 18.5373 5.99909 18.5373 6.66163Z"/></g></svg>